<svg width="32" height="32" viewBox="0 0 32 32" fill="none" xmlns="http://www.w3.org/2000/svg">
  <!-- Background circle -->
  <circle cx="16" cy="16" r="15.5" fill="#442d7b" stroke="white" stroke-width="1"/>
  
  <!-- Simplified maple leaf -->
  <path d="M16,6 
    L17,9 L19,7.5 L18.5,10 L20.5,9 
    L19,12 L21,11.5 L19,13 L20,15 
    L17.5,14.5 L18,17 L16,15.5 L14,17 
    L14.5,14.5 L12,15 L13,13 L11,11.5 
    L13,12 L11.5,9 L13.5,10 L13,7.5 L15,9 Z" 
    fill="#e81b39"/>
  
  <!-- Simplified PPC text -->
  <path d="M8,19 H12 C12.6,19 13,19.4 13,20 C13,20.6 12.6,21 12,21 H10 V23 H8 V19 Z" fill="white"/>
  <path d="M14,19 H18 C18.6,19 19,19.4 19,20 C19,20.6 18.6,21 18,21 H16 V23 H14 V19 Z" fill="white"/>
  <path d="M20,19 C21,19 22,20 22,21 V22 H24 V19 H20 Z" fill="white"/>
</svg> 