<svg width="32" height="32" viewBox="0 0 32 32" fill="none" xmlns="http://www.w3.org/2000/svg">
  <circle cx="16" cy="16" r="15" fill="#442d7b" stroke="white" stroke-width="1"/>
  <path d="M16,6 
    L17,9 L19,7.5 L18.5,10 L20.5,9 
    L19,12 L21,11.5 L19,13 L20,15 
    L17.5,14.5 L18,17 L16,15.5 L14,17 
    L14.5,14.5 L12,15 L13,13 L11,11.5 
    L13,12 L11.5,9 L13.5,10 L13,7.5 L15,9 Z" 
    fill="#e81b39"/>
  <path d="M12,20.5 C12,19 13,18 14.5,18 C16,18 17,19 17,20.5 C17,22 16,23 14.5,23 C13,23 12,22 12,20.5 Z" fill="white"/>
  <path d="M19,18.5 V23 H20 V20 H22 V23 H23 V18.5 H19 Z" fill="white"/>
</svg> 