<svg width="200" height="200" viewBox="0 0 200 200" fill="none" xmlns="http://www.w3.org/2000/svg">
  <!-- Background circle -->
  <circle cx="100" cy="100" r="95" fill="#442d7b" stroke="white" stroke-width="3"/>
  
  <!-- Maple leaf shape - simplified but recognizable -->
  <path d="M100,40 
    L105,55 L115,45 L112,60 L125,55 
    L115,70 L130,70 L115,80 L125,90 
    L110,90 L115,105 L100,95 L85,105 
    L90,90 L75,90 L85,80 L70,70 
    L85,70 L75,55 L88,60 L85,45 L95,55 Z" 
    fill="#e81b39"/>
  
  <!-- PPC text -->
  <path d="M45,120 H65 C72,120 78,126 78,133 C78,140 72,146 65,146 H55 V165 H45 V120 Z M55,136 H65 C66.7,136 68,134.7 68,133 C68,131.3 66.7,130 65,130 H55 V136 Z" fill="white"/>
  
  <path d="M85,120 H105 C112,120 118,126 118,133 C118,140 112,146 105,146 H95 V165 H85 V120 Z M95,136 H105 C106.7,136 108,134.7 108,133 C108,131.3 106.7,130 105,130 H95 V136 Z" fill="white"/>
  
  <path d="M125,120 C133,120 140,127 140,135 V150 C140,158 133,165 125,165 H145 V155 H125 C123.3,155 122,153.7 122,152 V133 C122,131.3 123.3,130 125,130 H145 V120 H125 Z" fill="white"/>
</svg> 