<svg width="200" height="200" viewBox="0 0 200 200" fill="none" xmlns="http://www.w3.org/2000/svg">
  <!-- Background circle with purple color -->
  <circle cx="100" cy="100" r="95" fill="#442d7b" stroke="white" stroke-width="3"/>
  
  <!-- Maple leaf - more accurate representation -->
  <path d="M100,40
    L103,48 L110,43 L108,52 L117,48
    L112,57 L122,55 L114,62 L123,67
    L112,69 L117,78 L100,73 L83,78
    L88,69 L77,67 L86,62 L78,55
    L88,57 L83,48 L92,52 L90,43 L97,48 Z"
    fill="#e81b39"/>
  
  <!-- PPC text - improved -->
  <path d="M34,130 H55 C63,130 70,137 70,145 C70,153 63,160 55,160 H46 V178 H34 V130 Z M46,150 H55 C56.7,150 58,148.7 58,147 C58,145.3 56.7,144 55,144 H46 V150 Z" fill="white"/>
  
  <path d="M77,130 H98 C106,130 113,137 113,145 C113,153 106,160 98,160 H89 V178 H77 V130 Z M89,150 H98 C99.7,150 101,148.7 101,147 C101,145.3 99.7,144 98,144 H89 V150 Z" fill="white"/>
  
  <path d="M120,130 C130,130 138,138 138,148 V160 C138,170 130,178 120,178 H142 V166 H120 C118.3,166 117,164.7 117,163 V145 C117,143.3 118.3,142 120,142 H142 V130 H120 Z" fill="white"/>
</svg> 