<svg width="600" height="200" viewBox="0 0 600 200" fill="none" xmlns="http://www.w3.org/2000/svg">
  <!-- Circular emblem on the left -->
  <g transform="translate(0, 0)">
    <!-- Background circle - official PPC purple -->
    <circle cx="100" cy="100" r="95" fill="#442d7b" stroke="white" stroke-width="3"/>
    
    <!-- Maple leaf shape - official PPC red -->
    <path d="M100,40 
      L105,55 L115,45 L112,60 L125,55 
      L115,70 L130,70 L115,80 L125,90 
      L110,90 L115,105 L100,95 L85,105 
      L90,90 L75,90 L85,80 L70,70 
      L85,70 L75,55 L88,60 L85,45 L95,55 Z" 
      fill="#e81b39"/>
    
    <!-- PPC text in white -->
    <path d="M45,120 H65 C72,120 78,126 78,133 C78,140 72,146 65,146 H55 V165 H45 V120 Z M55,136 H65 C66.7,136 68,134.7 68,133 C68,131.3 66.7,130 65,130 H55 V136 Z" fill="white"/>
    
    <path d="M85,120 H105 C112,120 118,126 118,133 C118,140 112,146 105,146 H95 V165 H85 V120 Z M95,136 H105 C106.7,136 108,134.7 108,133 C108,131.3 106.7,130 105,130 H95 V136 Z" fill="white"/>
    
    <path d="M125,120 C133,120 140,127 140,135 V150 C140,158 133,165 125,165 H145 V155 H125 C123.3,155 122,153.7 122,152 V133 C122,131.3 123.3,130 125,130 H145 V120 H125 Z" fill="white"/>
  </g>
  
  <!-- Text "PEOPLE'S PARTY OF CANADA" to the right -->
  <g transform="translate(220, 75)">
    <!-- "PEOPLE'S" text -->
    <path d="M0,0 H20 C27,0 33,6 33,13 C33,20 27,26 20,26 H10 V50 H0 V0 Z M10,16 H20 C21.7,16 23,14.7 23,13 C23,11.3 21.7,10 20,10 H10 V16 Z" fill="#442d7b"/>
    <path d="M40,0 H70 V10 H50 V20 H65 V30 H50 V50 H40 V0 Z" fill="#442d7b"/>
    <path d="M75,0 H105 C112,0 118,6 118,13 C118,20 112,26 105,26 H85 V50 H75 V0 Z M85,16 H105 C106.7,16 108,14.7 108,13 C108,11.3 106.7,10 105,10 H85 V16 Z" fill="#442d7b"/>
    <path d="M125,0 H155 V10 H135 V20 H150 V30 H135 V40 H155 V50 H125 V0 Z" fill="#442d7b"/>
    <path d="M165,0 H195 V10 H175 V50 H165 V0 Z" fill="#442d7b"/>
    <path d="M200,0 H210 V40 H230 V50 H200 V0 Z" fill="#442d7b"/>
    <path d="M240,25 A25,25 0 1,1 240,24.9 Z M240,15 A15,15 0 1,0 240,15.1 Z" fill="#442d7b"/>
    
    <!-- Apostrophe -->
    <path d="M235,0 A5,5 0 1,1 235,-0.1 Z" fill="#442d7b"/>
  </g>
  
  <!-- "PARTY OF CANADA" text below -->
  <g transform="translate(220, 135)">
    <!-- "PARTY" text -->
    <path d="M0,0 H20 C27,0 33,6 33,13 C33,20 27,26 20,26 H10 V50 H0 V0 Z M10,16 H20 C21.7,16 23,14.7 23,13 C23,11.3 21.7,10 20,10 H10 V16 Z" fill="#442d7b"/>
    <path d="M40,0 H70 V10 H50 V20 H65 V30 H50 V40 H70 V50 H40 V0 Z" fill="#442d7b"/>
    <path d="M75,0 H85 V40 H105 V50 H75 V0 Z" fill="#442d7b"/>
    <path d="M110,0 H120 V20 H130 V0 H140 V50 H130 V30 H120 V50 H110 V0 Z" fill="#442d7b"/>
    
    <!-- "OF" text -->
    <path d="M160,25 A25,25 0 1,1 160,24.9 Z M160,15 A15,15 0 1,0 160,15.1 Z" fill="#442d7b"/>
    <path d="M190,0 H220 V10 H200 V20 H215 V30 H200 V50 H190 V0 Z" fill="#442d7b"/>
    
    <!-- "CANADA" text -->
    <path d="M230,25 A25,25 0 1,1 230,24.9 Z M230,15 A15,15 0 1,0 230,15.1 Z" fill="#442d7b"/>
    <path d="M260,0 H270 V30 L290,0 H300 V50 H290 V20 L270,50 H260 V0 Z" fill="#442d7b"/>
    <path d="M310,0 H340 V10 H320 V20 H335 V30 H320 V40 H340 V50 H310 V0 Z" fill="#442d7b"/>
    <path d="M350,0 H380 V10 H360 V20 H375 V30 H360 V50 H350 V0 Z" fill="#442d7b"/>
    <path d="M390,0 H420 V10 H400 V20 H415 V30 H400 V40 H420 V50 H390 V0 Z" fill="#442d7b"/>
  </g>
</svg> 